<svg width="16" height="16" viewBox="0 0 16 16" fill="none" xmlns="http://www.w3.org/2000/svg">
    <g clip-path="url(#clip0_1400_993)">
        <path fill-rule="evenodd" clip-rule="evenodd"
            d="M4.70161 0.0481422C5.5549 0.00920926 5.82733 0 8.00002 0C10.1727 0 10.4451 0.00920926 11.2984 0.0481422C12.1499 0.0869798 12.7314 0.222229 13.2403 0.420006C13.7664 0.624419 14.2125 0.897966 14.6573 1.34271C15.102 1.78748 15.3756 2.23363 15.58 2.7597C15.7778 3.26855 15.913 3.8501 15.9519 4.70161C15.9908 5.5549 16 5.82733 16 8.00002C16 10.1727 15.9908 10.4451 15.9519 11.2984C15.913 12.1499 15.7778 12.7314 15.58 13.2403C15.3756 13.7664 15.102 14.2125 14.6573 14.6573C14.2125 15.102 13.7664 15.3756 13.2403 15.58C12.7314 15.7778 12.1499 15.913 11.2984 15.9519C10.4451 15.9908 10.1727 16 8.00002 16C5.82733 16 5.5549 15.9908 4.70161 15.9519C3.8501 15.913 3.26855 15.7778 2.7597 15.58C2.23363 15.3756 1.78748 15.102 1.34271 14.6573C0.897966 14.2125 0.624419 13.7664 0.420006 13.2403C0.222229 12.7314 0.0869798 12.1499 0.0481422 11.2984C0.00920926 10.4451 0 10.1727 0 8.00002C0 5.82733 0.00920926 5.5549 0.0481422 4.70161C0.0869798 3.8501 0.222229 3.26855 0.420006 2.7597C0.624419 2.23363 0.897966 1.78748 1.34271 1.34271C1.78748 0.897966 2.23363 0.624419 2.7597 0.420006C3.26855 0.222229 3.8501 0.0869798 4.70161 0.0481422ZM12.7182 1.76354C12.4363 1.65398 12.0127 1.52366 11.2327 1.48809C10.3891 1.4496 10.1361 1.44144 8.00002 1.44144C5.86391 1.44144 5.61088 1.4496 4.76731 1.48809C3.98732 1.52366 3.56373 1.65398 3.28183 1.76354C2.90841 1.90867 2.64191 2.08202 2.36198 2.36198C2.08202 2.64191 1.90867 2.90841 1.76354 3.28183C1.65398 3.56373 1.52366 3.98732 1.48809 4.76731C1.4496 5.61088 1.44144 5.86391 1.44144 8.00002C1.44144 10.1361 1.4496 10.3891 1.48809 11.2327C1.52366 12.0127 1.65398 12.4363 1.76354 12.7182C1.90867 13.0916 2.08205 13.3581 2.36198 13.638C2.64191 13.918 2.90841 14.0913 3.28183 14.2365C3.56373 14.346 3.98732 14.4763 4.76731 14.5119C5.61079 14.5504 5.86375 14.5586 8.00002 14.5586C10.1362 14.5586 10.3892 14.5504 11.2327 14.5119C12.0127 14.4763 12.4363 14.346 12.7182 14.2365C13.0916 14.0913 13.3581 13.918 13.638 13.638C13.918 13.3581 14.0913 13.0916 14.2365 12.7182C14.346 12.4363 14.4763 12.0127 14.5119 11.2327C14.5504 10.3891 14.5586 10.1361 14.5586 8.00002C14.5586 5.86391 14.5504 5.61088 14.5119 4.76731C14.4763 3.98732 14.346 3.56373 14.2365 3.28183C14.0913 2.90841 13.918 2.64191 13.638 2.36198C13.3581 2.08202 13.0916 1.90867 12.7182 1.76354ZM8.00002 3.89189C5.73114 3.89189 3.89189 5.73114 3.89189 8.00002C3.89189 10.2689 5.73114 12.1081 8.00002 12.1081C10.2689 12.1081 12.1081 10.2689 12.1081 8.00002C12.1081 5.73114 10.2689 3.89189 8.00002 3.89189ZM5.33333 8.00002C5.33333 9.47277 6.52723 10.6667 8.00002 10.6667C9.47277 10.6667 10.6667 9.47277 10.6667 8.00002C10.6667 6.52723 9.47277 5.33333 8.00002 5.33333C6.52723 5.33333 5.33333 6.52723 5.33333 8.00002ZM12.2704 4.68957C12.8006 4.68957 13.2304 4.25979 13.2304 3.72959C13.2304 3.19939 12.8006 2.76957 12.2704 2.76957C11.7402 2.76957 11.3104 3.19939 11.3104 3.72959C11.3104 4.25979 11.7402 4.68957 12.2704 4.68957Z"
            fill="white" />
    </g>
    <defs>
        <clipPath id="clip0_1400_993">
            <rect width="16" height="16" fill="white" />
        </clipPath>
    </defs>
</svg>