<svg width="16" height="16" viewBox="0 0 16 16" fill="none" xmlns="http://www.w3.org/2000/svg">
    <g clip-path="url(#clip0_1400_985)">
        <path fill-rule="evenodd" clip-rule="evenodd"
            d="M0 7.99424C0 3.58581 3.58297 0 8.01224 0C12.417 0 16 3.56224 16 7.99424C16 12.4027 12.417 16 8.01224 16C3.58297 16 0 12.4027 0 7.99424ZM9.57533 10.7686C8.99618 10.7686 8.63217 10.5192 8.63217 9.7978V7.39121H10.3298V5.65202H8.63217V3.279H7.17716C7.10986 4.32394 6.52358 5.5306 5.12261 5.89476V7.39121H6.39511V10.155C6.39511 11.8808 7.4392 12.6023 8.84119 12.6023H10.3971V10.7686H9.57533Z"
            fill="white" />
    </g>
    <defs>
        <clipPath id="clip0_1400_985">
            <rect width="16" height="16" fill="white" />
        </clipPath>
    </defs>
</svg>